<svg width="256" height="256" viewBox="0 0 256 256" fill="none" xmlns="http://www.w3.org/2000/svg">
  <defs>
    <radialGradient id="bgGlow" cx="0" cy="0" r="1" gradientUnits="userSpaceOnUse" gradientTransform="translate(128 110) rotate(90) scale(140)">
      <stop stop-color="#FFFFFF"/>
      <stop offset="1" stop-color="#EAF7FF"/>
    </radialGradient>
    <linearGradient id="ring" x1="38" y1="204" x2="183" y2="40" gradientUnits="userSpaceOnUse">
      <stop stop-color="#183E7D"/>
      <stop offset="1" stop-color="#2C7EBC"/>
    </linearGradient>
    <linearGradient id="waveDark" x1="59" y1="171" x2="140" y2="120" gradientUnits="userSpaceOnUse">
      <stop stop-color="#153C7B"/>
      <stop offset="1" stop-color="#2CA9D9"/>
    </linearGradient>
    <linearGradient id="waveLight" x1="85" y1="150" x2="162" y2="94" gradientUnits="userSpaceOnUse">
      <stop stop-color="#43C3E1"/>
      <stop offset="1" stop-color="#B8F6FF"/>
    </linearGradient>
    <linearGradient id="wingMain" x1="138" y1="122" x2="205" y2="52" gradientUnits="userSpaceOnUse">
      <stop stop-color="#27A9D4"/>
      <stop offset="1" stop-color="#A9F0FF"/>
    </linearGradient>
  </defs>
  <rect width="256" height="256" rx="64" fill="url(#bgGlow)"/>
  <circle cx="128" cy="128" r="110" fill="white" fill-opacity="0.3"/>
  <path d="M46 150.5C46 96.8756 88.6091 52 141.162 48.3708C155.702 47.367 169.177 49.4503 181.586 54.6207L170.545 68.1737C161.984 65.2508 152.953 64.0753 143.453 64.6471C98.2664 67.3672 62.5 106.378 62.5 151.811C62.5 188.046 85.4185 219.006 117.528 230.799L110.945 247.491C72.8894 233.873 46 195.597 46 150.5Z" fill="url(#ring)"/>
  <path d="M70 152.334C88.9098 132.591 107.923 123.297 127.039 124.451C140.463 125.262 149.69 130.519 154.72 140.222C147.43 137.726 140.804 136.604 134.842 136.854C124.058 137.306 112.907 142.491 101.391 152.41C111.173 157.439 121.046 165.562 131.009 176.778C141.007 188.033 148.922 200.239 154.752 213.397C147.968 210.915 141.531 209.312 135.441 208.588C118.993 206.634 103.465 210.216 88.858 219.334C96.2867 203.077 99.7578 189.249 99.2718 177.848C98.8103 166.449 89.0531 157.944 70 152.334Z" fill="url(#waveDark)"/>
  <path d="M82.5 149.289C100.518 133.598 117.802 126.481 134.353 127.937C145.063 128.879 152.293 133.43 156.043 141.591C149.919 139.925 143.9 139.361 137.987 139.899C126.986 140.901 116.495 146.549 106.514 156.842C114.727 161.987 122.669 169.026 130.339 177.96C137.597 186.414 143.388 195.473 147.713 205.137C142.994 203.472 137.694 202.558 131.812 202.394C116.716 201.973 103.612 206.71 92.5 216.605C99.6049 200.969 102.585 187.955 101.44 177.563C100.322 167.138 93.9754 157.713 82.5 149.289Z" fill="url(#waveLight)"/>
  <path d="M134.732 128.606C159.754 120.858 179.844 103.473 195.004 76.449C197.581 96.1517 192.149 112.686 178.708 126.051C169.058 135.646 156.273 141.486 140.354 143.573C150.195 144.702 159.681 147.91 168.813 153.197C161.177 153.818 154.405 154.942 148.498 156.569C157.55 160.742 165.227 166.752 171.528 174.598C162.523 172.676 154.062 171.996 146.145 172.559C153.141 176.237 159.193 181.298 164.299 187.742C151.868 183.45 140.105 182.184 129.01 183.943C119.645 185.427 110.603 189.304 101.883 195.573C109.268 179.489 116.084 166.868 122.329 157.71C127.09 150.726 131.225 144.358 134.732 128.606Z" fill="url(#wingMain)"/>
  <path d="M175.579 90.4676C161.231 113.823 143.101 129.248 121.187 136.745C130.338 124.373 138.811 114.794 146.607 108.006C154.425 101.219 164.082 95.3721 175.579 90.4676Z" fill="#C7FBFF" fill-opacity="0.78"/>
  <path d="M118.53 89.0709C131.783 91.3464 140.863 100.357 145.771 116.102C139.854 108.405 133.572 102.387 126.925 98.0498C120.279 93.7347 111.525 90.7417 100.665 89.0709H118.53Z" fill="#C7FBFF" fill-opacity="0.62"/>
  <path d="M166.112 187.539C171.569 186.143 176.201 186.857 180.009 189.682C183.835 192.49 186.25 196.337 187.255 201.222C182.573 200.071 178.819 200.106 175.995 201.328C173.194 202.551 170.082 205.19 166.66 209.246C164.485 206.143 163.853 202.757 164.763 199.088C165.693 195.417 166.143 191.567 166.112 187.539Z" fill="#42BFD8"/>
</svg>